<svg width="27" height="27" viewBox="0 0 27 27" fill="none" xmlns="http://www.w3.org/2000/svg">
<g clip-path="url(#clip0)">
<path d="M26.7128 10.9722L13.9144 1.60144C13.6676 1.42078 13.3323 1.42078 13.0856 1.60144L0.287108 10.9722C-0.0255012 11.2011 -0.0934231 11.6401 0.135497 11.9527C0.364417 12.2653 0.80343 12.3331 1.11599 12.1043L13.5 3.03693L25.884 12.1042C26.0088 12.1957 26.154 12.2398 26.2978 12.2398C26.5138 12.2398 26.727 12.1404 26.8644 11.9526C27.0934 11.6401 27.0254 11.2011 26.7128 10.9722Z" fill="#5203D1"/>
<path d="M23.3215 12.2629C22.9341 12.2629 22.62 12.577 22.62 12.9645V24.1309H17.0079V18.0356C17.0079 16.1013 15.4342 14.5277 13.5 14.5277C11.5658 14.5277 9.99213 16.1014 9.99213 18.0356V24.131H4.37998V12.9645C4.37998 12.5771 4.06584 12.263 3.67845 12.263C3.29107 12.263 2.97693 12.5771 2.97693 12.9645V24.8325C2.97693 25.22 3.29107 25.5341 3.67845 25.5341H10.6937C11.0626 25.5341 11.3645 25.249 11.3924 24.8872C11.3941 24.8708 11.3952 24.8528 11.3952 24.8325V18.0356C11.3952 16.875 12.3394 15.9308 13.5 15.9308C14.6607 15.9308 15.6049 16.875 15.6049 18.0356V24.8325C15.6049 24.8527 15.6059 24.8704 15.6076 24.8865C15.6352 25.2487 15.9372 25.5341 16.3064 25.5341H23.3216C23.709 25.5341 24.0231 25.22 24.0231 24.8325V12.9645C24.0231 12.577 23.709 12.2629 23.3215 12.2629Z" fill="#5203D1"/>
</g>
<defs>
<clipPath id="clip0">
<rect width="27" height="27" fill="white"/>
</clipPath>
</defs>
</svg>
