<svg width="27" height="28" viewBox="0 0 27 28" fill="none" xmlns="http://www.w3.org/2000/svg">
<g clip-path="url(#clip0)">
<path d="M26.9999 14.295C26.9999 13.7244 26.6829 13.2113 26.1723 12.9557L24.162 11.9505L26.1723 10.9454C26.1724 10.9453 26.1725 10.9453 26.1725 10.9453C26.683 10.6898 27.0001 10.1766 27.0001 9.60598C27.0001 9.03545 26.683 8.52229 26.1724 8.26669L14.8231 2.59217C13.9945 2.17825 13.0053 2.17825 12.1766 2.59222L0.827454 8.26695C0.317091 8.52235 1.05193e-07 9.03545 1.05193e-07 9.60603C1.05193e-07 10.1767 0.317039 10.6898 0.827612 10.9454L2.8379 11.9505L0.827348 12.9558C0.317039 13.2113 1.05193e-07 13.7244 1.05193e-07 14.295C1.05193e-07 14.8656 0.317039 15.3788 0.827612 15.6343L2.8379 16.6395L0.82777 17.6445C0.31746 17.8995 0.000211042 18.4124 1.05193e-07 18.9831C-0.000210832 19.5541 0.316828 20.0676 0.827612 20.3232L12.1768 25.9979C12.5911 26.2048 13.0454 26.3082 13.4999 26.3082C13.9544 26.3082 14.409 26.2047 14.8233 25.9978L26.1725 20.3232C26.6831 20.0677 27.0002 19.5542 26.9999 18.9832C26.9997 18.4125 26.6825 17.8996 26.1723 17.6447L24.162 16.6396L26.1725 15.6343C26.6829 15.3788 26.9999 14.8656 26.9999 14.295ZM1.38296 9.83527C1.25961 9.77352 1.24126 9.66515 1.24126 9.60609C1.24126 9.54703 1.25972 9.43866 1.38275 9.37706L12.7316 3.70264C12.9722 3.58241 13.2361 3.5224 13.5001 3.5224C13.7639 3.5224 14.0278 3.58246 14.2683 3.70259L25.617 9.37696C25.7403 9.43866 25.7587 9.54703 25.7587 9.60609C25.7587 9.66515 25.7404 9.77352 25.617 9.83527L14.2684 15.5095C13.7872 15.7499 13.2127 15.7499 12.7318 15.5096L1.38296 9.83527ZM25.6174 18.755C25.7403 18.8163 25.7587 18.9245 25.7587 18.9836C25.7587 19.0428 25.7403 19.1514 25.6172 19.213L14.2684 24.8874C13.7872 25.1278 13.2127 25.1278 12.7317 24.8875L1.38296 19.2131C1.25961 19.1513 1.24121 19.0428 1.24126 18.9836C1.24126 18.9245 1.25961 18.8163 1.38275 18.7549L4.22576 17.3333L12.1768 21.3088C12.5911 21.5158 13.0454 21.6192 13.4999 21.6192C13.9544 21.6192 14.4089 21.5157 14.8232 21.3088L22.7741 17.3333L25.6174 18.755ZM25.6172 14.5241L14.2684 20.1985C13.7872 20.4389 13.2127 20.4389 12.7317 20.1986L1.38296 14.5242C1.25961 14.4625 1.24126 14.3541 1.24126 14.2951C1.24126 14.2359 1.25961 14.1276 1.38275 14.066L4.22576 12.6445L12.1768 16.62C12.591 16.8269 13.0455 16.9304 13.4999 16.9304C13.9543 16.9304 14.4088 16.8269 14.8232 16.6199L22.7741 12.6444L25.6169 14.0658C25.7403 14.1276 25.7586 14.2359 25.7586 14.295C25.7587 14.3541 25.7403 14.4624 25.6172 14.5241Z" fill="#5203D1"/>
</g>
<defs>
<clipPath id="clip0">
<rect width="27" height="27" fill="white" transform="translate(0 0.794922)"/>
</clipPath>
</defs>
</svg>
