<svg width="27" height="27" viewBox="0 0 27 27" fill="none" xmlns="http://www.w3.org/2000/svg">
<g clip-path="url(#clip0)">
<path d="M11.3214 21.2428C10.012 21.2428 8.94678 22.308 8.94678 23.6174C8.94678 24.9267 10.012 25.992 11.3214 25.992C12.6307 25.992 13.6959 24.9267 13.6959 23.6174C13.6959 22.308 12.6306 21.2428 11.3214 21.2428ZM11.3214 24.666C10.7431 24.666 10.2726 24.1955 10.2726 23.6173C10.2726 23.039 10.7431 22.5685 11.3214 22.5685C11.8996 22.5685 12.3701 23.039 12.3701 23.6173C12.3701 24.1956 11.8996 24.666 11.3214 24.666Z" fill="#5203D1"/>
<path d="M19.6505 21.2428C18.3411 21.2428 17.2759 22.308 17.2759 23.6174C17.2759 24.9267 18.3411 25.992 19.6505 25.992C20.9598 25.992 22.025 24.9267 22.025 23.6174C22.025 22.308 20.9598 21.2428 19.6505 21.2428ZM19.6505 24.666C19.0722 24.666 18.6017 24.1955 18.6017 23.6173C18.6017 23.039 19.0722 22.5685 19.6505 22.5685C20.2287 22.5685 20.6992 23.039 20.6992 23.6173C20.6992 24.1956 20.2287 24.666 19.6505 24.666Z" fill="#5203D1"/>
<path d="M20.2351 8.74109H10.7351C10.3689 8.74109 10.0721 9.03788 10.0721 9.40401C10.0721 9.77015 10.369 10.0669 10.7351 10.0669H20.2351C20.6013 10.0669 20.8981 9.77015 20.8981 9.40401C20.8981 9.03783 20.6013 8.74109 20.2351 8.74109Z" fill="#5203D1"/>
<path d="M19.718 12.1836H11.2522C10.886 12.1836 10.5892 12.4804 10.5892 12.8465C10.5892 13.2127 10.886 13.5094 11.2522 13.5094H19.718C20.0841 13.5094 20.3809 13.2127 20.3809 12.8465C20.3809 12.4804 20.0841 12.1836 19.718 12.1836Z" fill="#5203D1"/>
<path d="M26.7012 5.78726C26.4484 5.47697 26.0738 5.29905 25.6735 5.29905H5.02403L4.607 3.27462C4.51994 2.85232 4.2319 2.49774 3.83634 2.32598L0.926615 1.06299C0.590697 0.917074 0.200304 1.07122 0.0545985 1.40703C-0.0912649 1.74295 0.0628778 2.1334 0.398638 2.2791L3.30842 3.54214L6.51604 19.1126C6.64239 19.7258 7.18851 20.1709 7.81463 20.1709H23.6964C24.0626 20.1709 24.3594 19.8741 24.3594 19.5079C24.3594 19.1418 24.0626 18.845 23.6964 18.845H7.81468L7.4245 16.951H23.8192C24.4453 16.951 24.9914 16.5059 25.1177 15.8927L26.972 6.89226C27.0528 6.50034 26.9541 6.0975 26.7012 5.78726ZM23.8192 15.6252H7.15139L5.29719 6.62484L25.6734 6.6249L23.8192 15.6252Z" fill="#5203D1"/>
</g>
<defs>
<clipPath id="clip0">
<rect width="27" height="27" fill="white"/>
</clipPath>
</defs>
</svg>
