<svg width="27" height="28" viewBox="0 0 27 28" fill="none" xmlns="http://www.w3.org/2000/svg">
<g clip-path="url(#clip0)">
<path d="M19.6325 3.47168H1.52039C0.682015 3.47168 0 4.15369 0 4.99201V15.8583C0 16.6966 0.682015 17.3787 1.52039 17.3787H2.69484V21.4239C2.69484 21.6815 2.84998 21.9138 3.08803 22.0124C3.16681 22.0451 3.2496 22.0609 3.33166 22.0609C3.49746 22.0609 3.6603 21.9961 3.78217 21.8743L8.27784 17.3787H9.17981C9.5316 17.3787 9.81674 17.0936 9.81674 16.7418C9.81674 16.3899 9.53149 16.1048 9.17981 16.1048C9.17981 16.1048 7.98326 16.1056 7.97076 16.1069C7.82247 16.117 7.67693 16.178 7.56355 16.2914L3.96869 19.8862C3.96869 19.8862 3.96758 16.7015 3.96553 16.685C3.93679 16.3598 3.66404 16.1048 3.33145 16.1048H1.52039C1.38444 16.1048 1.27391 15.9942 1.27391 15.8583V4.99201C1.27391 4.85606 1.38449 4.74553 1.52039 4.74553H19.6325C19.7685 4.74553 19.879 4.85612 19.879 4.99201V9.16094C19.879 9.51273 20.1642 9.79786 20.5159 9.79786C20.8676 9.79786 21.1529 9.51273 21.1529 9.16094V4.99201C21.1529 4.15369 20.4708 3.47168 19.6325 3.47168Z" fill="#5203D1"/>
<path d="M25.4797 11.2623H12.8015C11.9632 11.2623 11.2811 11.9443 11.2811 12.7827V20.1956C11.2811 21.0339 11.9631 21.716 12.8015 21.716H20.7388L23.9545 24.9317C24.0764 25.0536 24.2393 25.1183 24.405 25.1183C24.4871 25.1183 24.5699 25.1024 24.6487 25.0698C24.8866 24.9712 25.0419 24.739 25.0419 24.4813V21.7159H25.4796C26.3179 21.7159 27 21.0339 27 20.1955V12.7827C27.0001 11.9443 26.318 11.2623 25.4797 11.2623ZM25.7262 20.1956C25.7262 20.3315 25.6156 20.4421 25.4797 20.4421H24.4052C24.07 20.4421 23.7959 20.7011 23.7708 21.0299C23.7691 21.0438 23.7681 22.9436 23.7681 22.9436L21.4555 20.631C21.453 20.6285 21.4505 20.6263 21.4481 20.6239C21.439 20.615 21.4304 20.6073 21.4223 20.6004C21.3102 20.5021 21.1637 20.442 21.003 20.442H12.8015C12.6656 20.442 12.555 20.3314 12.555 20.1955V12.7827C12.555 12.6467 12.6656 12.5362 12.8015 12.5362H25.4797C25.6156 12.5362 25.7262 12.6468 25.7262 12.7827V20.1956Z" fill="#5203D1"/>
<path d="M19.1407 15.8522C18.7891 15.8522 18.5038 16.1375 18.5038 16.4891C18.5038 16.8407 18.7891 17.126 19.1407 17.126C19.4923 17.126 19.7776 16.8407 19.7776 16.4891C19.7776 16.1375 19.4923 15.8522 19.1407 15.8522Z" fill="#5203D1"/>
<path d="M16.3726 7.68262H4.78042C4.42868 7.68262 4.14349 7.96775 4.14349 8.31955C4.14349 8.67134 4.42873 8.95647 4.78042 8.95647H16.3726C16.7244 8.95647 17.0096 8.67134 17.0096 8.31955C17.0096 7.96775 16.7244 7.68262 16.3726 7.68262Z" fill="#5203D1"/>
<path d="M9.1798 11.8937H4.78042C4.42868 11.8937 4.14349 12.1788 4.14349 12.5306C4.14349 12.8824 4.42873 13.1675 4.78042 13.1675H9.1798C9.53159 13.1675 9.81672 12.8824 9.81672 12.5306C9.81672 12.1788 9.53153 11.8937 9.1798 11.8937Z" fill="#5203D1"/>
<path d="M16.1809 15.8522C15.8294 15.8522 15.544 16.1375 15.544 16.4891C15.544 16.8407 15.8294 17.126 16.1809 17.126C16.5326 17.126 16.8179 16.8407 16.8179 16.4891C16.8179 16.1375 16.5326 15.8522 16.1809 15.8522Z" fill="#5203D1"/>
<path d="M22.0999 15.8522C21.7484 15.8522 21.463 16.1375 21.463 16.4891C21.463 16.8407 21.7484 17.126 22.0999 17.126C22.4516 17.126 22.7369 16.8407 22.7369 16.4891C22.7369 16.1375 22.4515 15.8522 22.0999 15.8522Z" fill="#5203D1"/>
</g>
<defs>
<clipPath id="clip0">
<rect width="27" height="27" fill="white" transform="translate(0 0.794922)"/>
</clipPath>
</defs>
</svg>
